<svg width="128" height="128" viewBox="0 0 128 128" fill="none" xmlns="http://www.w3.org/2000/svg">
<rect x="1.5" y="1.5" width="125" height="125" rx="10.5" stroke="#3F0B72" stroke-width="3"/>
<path d="M96.4624 110.662C96.1062 110.662 95.8062 110.541 95.5624 110.297C95.3187 110.053 95.1968 109.753 95.1968 109.397V92.325C95.1968 91.9687 95.3187 91.6688 95.5624 91.425C95.8062 91.1625 96.1062 91.0312 96.4624 91.0312H107.741C108.078 91.0312 108.359 91.1531 108.584 91.3969C108.828 91.6219 108.95 91.9031 108.95 92.2406C108.95 92.5781 108.828 92.8594 108.584 93.0844C108.359 93.3094 108.078 93.4219 107.741 93.4219H97.7562V99.6375H106.728C107.066 99.6375 107.347 99.7594 107.572 100.003C107.816 100.228 107.937 100.509 107.937 100.847C107.937 101.184 107.816 101.466 107.572 101.691C107.347 101.916 107.066 102.028 106.728 102.028H97.7562V108.272H107.741C108.078 108.272 108.359 108.394 108.584 108.637C108.828 108.862 108.95 109.144 108.95 109.481C108.95 109.819 108.828 110.1 108.584 110.325C108.359 110.55 108.078 110.662 107.741 110.662H96.4624Z" fill="#3F0B72"/>
<path d="M66.2344 110.944C64.3594 110.944 62.6719 110.541 61.1719 109.734C59.6906 108.909 58.5187 107.737 57.6562 106.219C56.8125 104.681 56.3906 102.891 56.3906 100.847C56.3906 98.8031 56.8125 97.0219 57.6562 95.5031C58.5187 93.9656 59.6906 92.7937 61.1719 91.9875C62.6719 91.1625 64.3594 90.75 66.2344 90.75C67.5094 90.75 68.6437 90.9 69.6375 91.2C70.65 91.5 71.6531 91.9312 72.6469 92.4937C73.0594 92.7187 73.2656 93.075 73.2656 93.5625C73.2656 93.8437 73.1625 94.0969 72.9562 94.3219C72.75 94.5281 72.4781 94.6312 72.1406 94.6312C71.9531 94.6312 71.7844 94.5937 71.6344 94.5187C70.8094 94.0875 70.0031 93.7594 69.2156 93.5344C68.4281 93.3094 67.5187 93.1969 66.4875 93.1969C64.875 93.1969 63.4969 93.5344 62.3531 94.2094C61.2281 94.8656 60.375 95.775 59.7937 96.9375C59.2312 98.0812 58.95 99.3844 58.95 100.847C58.95 102.309 59.2312 103.622 59.7937 104.784C60.375 105.928 61.2281 106.837 62.3531 107.512C63.4969 108.169 64.875 108.497 66.4875 108.497C67.5187 108.497 68.4281 108.384 69.2156 108.159C70.0031 107.934 70.8094 107.606 71.6344 107.175C71.7844 107.1 71.9531 107.062 72.1406 107.062C72.4781 107.062 72.75 107.166 72.9562 107.372C73.1625 107.578 73.2656 107.831 73.2656 108.131C73.2656 108.619 73.0594 108.975 72.6469 109.2C71.6531 109.762 70.65 110.194 69.6375 110.494C68.6437 110.794 67.5094 110.944 66.2344 110.944Z" fill="#3F0B72"/>
<path d="M20.2656 110.803C19.8906 110.803 19.5812 110.681 19.3375 110.437C19.1125 110.194 19 109.894 19 109.537C19 109.387 19.0469 109.2 19.1406 108.975L26.3125 92.0437C26.4625 91.7062 26.6687 91.4344 26.9312 91.2281C27.2125 91.0031 27.55 90.8906 27.9437 90.8906H28.225C28.6187 90.8906 28.9469 91.0031 29.2094 91.2281C29.4906 91.4344 29.7062 91.7062 29.8562 92.0437L37.0281 108.975C37.1219 109.2 37.1687 109.387 37.1687 109.537C37.1687 109.894 37.0469 110.194 36.8031 110.437C36.5781 110.681 36.2781 110.803 35.9031 110.803C35.6406 110.803 35.3969 110.737 35.1719 110.606C34.9656 110.456 34.8062 110.259 34.6937 110.016L32.8656 105.628H23.3031L21.475 110.016C21.3625 110.259 21.1937 110.456 20.9687 110.606C20.7625 110.737 20.5281 110.803 20.2656 110.803ZM24.2875 103.294H31.8812L28.0844 94.1531L24.2875 103.294Z" fill="#3F0B72"/>
<path d="M96.3374 73.8031C95.9812 73.8031 95.6812 73.6812 95.4374 73.4375C95.1937 73.1937 95.0718 72.8937 95.0718 72.5375V55.325C95.0718 54.9687 95.1937 54.6688 95.4374 54.425C95.6812 54.1625 95.9812 54.0312 96.3374 54.0312H107.278C107.616 54.0312 107.897 54.1531 108.122 54.3969C108.366 54.6219 108.487 54.9031 108.487 55.2406C108.487 55.5781 108.366 55.8594 108.122 56.0844C107.897 56.3094 107.616 56.4219 107.278 56.4219H97.6312V62.6375H106.294C106.631 62.6375 106.912 62.7594 107.137 63.0031C107.381 63.2281 107.503 63.5094 107.503 63.8469C107.503 64.1844 107.381 64.4656 107.137 64.6906C106.912 64.9156 106.631 65.0281 106.294 65.0281H97.6312V72.5375C97.6312 72.8937 97.4999 73.1937 97.2374 73.4375C96.9937 73.6812 96.6937 73.8031 96.3374 73.8031Z" fill="#3F0B72"/>
<path d="M64.3936 73.8031C64.0373 73.8031 63.7373 73.6812 63.4936 73.4375C63.2498 73.1937 63.128 72.8937 63.128 72.5375V56.4219H57.3905C57.053 56.4219 56.7717 56.3094 56.5467 56.0844C56.3217 55.8594 56.2092 55.5781 56.2092 55.2406C56.2092 54.9031 56.3217 54.6219 56.5467 54.3969C56.7717 54.1531 57.053 54.0312 57.3905 54.0312H71.3967C71.7342 54.0312 72.0155 54.1531 72.2405 54.3969C72.4842 54.6219 72.6061 54.9031 72.6061 55.2406C72.6061 55.5781 72.4842 55.8594 72.2405 56.0844C72.0155 56.3094 71.7342 56.4219 71.3967 56.4219H65.6873V72.5375C65.6873 72.8937 65.5561 73.1937 65.2936 73.4375C65.0498 73.6812 64.7498 73.8031 64.3936 73.8031Z" fill="#3F0B72"/>
<path d="M20.4624 73.8031C20.1062 73.8031 19.8062 73.6812 19.5624 73.4375C19.3187 73.1937 19.1968 72.8937 19.1968 72.5375V55.7469C19.1968 55.2406 19.3749 54.8094 19.7312 54.4531C20.0874 54.0781 20.5187 53.8906 21.0249 53.8906H21.3905C21.9905 53.8906 22.5062 54.1719 22.9374 54.7344L33.7655 70.3719V55.1844C33.7655 54.8281 33.8874 54.5281 34.1311 54.2844C34.3749 54.0219 34.6749 53.8906 35.0311 53.8906C35.3874 53.8906 35.6874 54.0219 35.9311 54.2844C36.1936 54.5281 36.3249 54.8281 36.3249 55.1844V71.975C36.3249 72.4812 36.1374 72.9125 35.7624 73.2687C35.4061 73.625 34.9749 73.8031 34.4686 73.8031H34.1311C33.8311 73.8031 33.5499 73.7375 33.2874 73.6062C33.0249 73.4562 32.8093 73.2687 32.6405 73.0437L21.7562 57.3219V72.5375C21.7562 72.8937 21.6249 73.1937 21.3624 73.4375C21.1187 73.6812 20.8187 73.8031 20.4624 73.8031Z" fill="#3F0B72"/>
<path d="M101.378 37.1937C100.047 37.1937 98.7624 36.9125 97.5249 36.35C96.2874 35.7875 95.2749 34.9344 94.4874 33.7906C93.6999 32.6281 93.3062 31.2125 93.3062 29.5437V18.4344C93.3062 18.0781 93.428 17.7781 93.6718 17.5344C93.9155 17.2719 94.2155 17.1406 94.5718 17.1406C94.928 17.1406 95.228 17.2719 95.4718 17.5344C95.7343 17.7781 95.8655 18.0781 95.8655 18.4344V29.6281C95.8655 30.7531 96.1187 31.7094 96.6249 32.4969C97.1499 33.2844 97.8343 33.875 98.678 34.2687C99.5218 34.6625 100.422 34.8594 101.378 34.8594C102.334 34.8594 103.234 34.6625 104.078 34.2687C104.922 33.875 105.597 33.2844 106.103 32.4969C106.628 31.7094 106.891 30.7531 106.891 29.6281V18.4344C106.891 18.0781 107.012 17.7781 107.256 17.5344C107.5 17.2719 107.8 17.1406 108.156 17.1406C108.512 17.1406 108.812 17.2719 109.056 17.5344C109.319 17.7781 109.45 18.0781 109.45 18.4344V29.5437C109.45 31.2125 109.056 32.6281 108.269 33.7906C107.481 34.9344 106.469 35.7875 105.231 36.35C103.994 36.9125 102.709 37.1937 101.378 37.1937Z" fill="#3F0B72"/>
<path d="M57.0156 37.0531C56.6406 37.0531 56.3312 36.9312 56.0875 36.6875C55.8625 36.4437 55.75 36.1437 55.75 35.7875C55.75 35.6375 55.7969 35.45 55.8906 35.225L63.0625 18.2937C63.2125 17.9562 63.4187 17.6844 63.6812 17.4781C63.9625 17.2531 64.3 17.1406 64.6937 17.1406H64.975C65.3687 17.1406 65.6969 17.2531 65.9594 17.4781C66.2406 17.6844 66.4562 17.9562 66.6062 18.2937L73.7781 35.225C73.8719 35.45 73.9187 35.6375 73.9187 35.7875C73.9187 36.1437 73.7969 36.4437 73.5531 36.6875C73.3281 36.9312 73.0281 37.0531 72.6531 37.0531C72.3906 37.0531 72.1469 36.9875 71.9219 36.8562C71.7156 36.7062 71.5562 36.5094 71.4437 36.2656L69.6156 31.8781H60.0531L58.225 36.2656C58.1125 36.5094 57.9437 36.7062 57.7187 36.8562C57.5125 36.9875 57.2781 37.0531 57.0156 37.0531ZM61.0375 29.5437H68.6312L64.8344 20.4031L61.0375 29.5437Z" fill="#3F0B72"/>
<path d="M28.8875 37.1937C26.9562 37.1937 25.2406 36.7719 23.7406 35.9281C22.2406 35.0656 21.0781 33.875 20.2531 32.3562C19.4281 30.8187 19.0156 29.075 19.0156 27.125C19.0156 25.1375 19.4469 23.375 20.3094 21.8375C21.1719 20.3 22.3437 19.1094 23.825 18.2656C25.325 17.4219 26.9844 17 28.8031 17C30.2656 17 31.5406 17.1781 32.6281 17.5344C33.7344 17.8906 34.7937 18.3875 35.8062 19.025C35.9562 19.1 36.0875 19.2312 36.2 19.4187C36.3125 19.6062 36.3687 19.8125 36.3687 20.0375C36.3687 20.3562 36.2562 20.6281 36.0312 20.8531C35.825 21.0781 35.5437 21.1906 35.1875 21.1906C34.9812 21.1906 34.7844 21.1437 34.5969 21.05C33.7156 20.525 32.8344 20.1312 31.9531 19.8687C31.0719 19.6062 30.1156 19.475 29.0844 19.475C27.6594 19.475 26.375 19.775 25.2312 20.375C24.0875 20.975 23.1875 21.8562 22.5312 23.0187C21.8937 24.1625 21.575 25.5312 21.575 27.125C21.575 28.5875 21.875 29.9 22.475 31.0625C23.0937 32.2062 23.975 33.1156 25.1187 33.7906C26.2812 34.4469 27.65 34.775 29.225 34.775C30.9875 34.775 32.6281 34.3625 34.1469 33.5375V28.4469H29.5062C29.1875 28.4469 28.9156 28.3344 28.6906 28.1094C28.4656 27.8844 28.3531 27.6125 28.3531 27.2937C28.3531 26.975 28.4656 26.7031 28.6906 26.4781C28.9156 26.2531 29.1875 26.1406 29.5062 26.1406H35.0469C35.4219 26.1406 35.7406 26.2719 36.0031 26.5344C36.2656 26.7969 36.3969 27.1156 36.3969 27.4906V33.875C36.3969 34.2687 36.2937 34.625 36.0875 34.9437C35.9 35.2437 35.6469 35.4687 35.3281 35.6187C33.2281 36.6687 31.0812 37.1937 28.8875 37.1937Z" fill="#3F0B72"/>
</svg>
